<svg version="1.1" id="Layer_1" xmlns="http://www.w3.org/2000/svg" xmlns:xlink="http://www.w3.org/1999/xlink" x="0px" y="0px"
	 width="100%" viewBox="0 0 300 300" enable-background="new 0 0 300 300" xml:space="preserve">
<path fill="#3085C2" opacity="1.000000" stroke="none" 
	d="
M175.000000,301.000000 
	C116.666679,301.000000 58.833355,301.000000 1.000023,301.000000 
	C1.000015,201.000031 1.000015,101.000053 1.000008,1.000064 
	C100.999947,1.000042 200.999893,1.000042 300.999878,1.000021 
	C300.999939,100.999939 300.999939,200.999878 300.999969,300.999908 
	C259.166656,301.000000 217.333328,301.000000 175.000000,301.000000 
M148.306992,168.197479 
	C144.955246,170.338043 141.817352,172.974854 138.212616,174.528320 
	C126.278099,179.671524 112.946327,176.114716 107.103676,166.620575 
	C98.544502,152.712189 105.726059,130.423767 121.049835,124.880341 
	C132.240768,120.831970 142.986755,121.954063 152.409210,131.686539 
	C152.993454,125.762581 153.720825,120.703781 153.832626,115.631409 
	C153.860718,114.356834 152.177292,112.569557 150.833038,111.816986 
	C142.267807,107.021759 132.950745,106.636955 123.664009,108.551300 
	C104.019447,112.600784 91.987000,126.120872 88.792557,147.216049 
	C86.524780,162.191772 89.397415,175.786835 102.226089,185.061386 
	C115.252106,194.478622 129.632721,194.205322 143.984024,187.836670 
	C145.636002,187.103577 147.517029,185.060150 147.787369,183.381897 
	C148.604202,178.311203 148.679840,173.121124 148.831772,167.730515 
	C148.985245,167.771545 149.138733,167.812592 149.292206,167.853622 
	C149.184204,167.916061 149.076218,167.978500 148.306992,168.197479 
M48.756432,191.455078 
	C64.235291,188.271667 73.539810,178.608551 75.921364,163.309540 
	C78.065475,149.535858 78.754181,135.534698 80.052505,121.630844 
	C80.431252,117.574829 80.699226,113.508476 81.028984,109.306526 
	C75.638718,109.306526 70.896454,109.306526 65.791580,109.306526 
	C65.170685,116.005943 64.576256,122.450439 63.975563,128.894348 
	C62.972549,139.654068 62.255997,150.450836 60.876740,161.162201 
	C59.554417,171.431381 51.424335,177.811554 41.798069,176.888214 
	C32.909832,176.035690 28.501141,170.127441 29.100416,158.865967 
	C29.612646,149.240219 30.757912,139.648773 31.588390,130.039139 
	C32.181557,123.175461 32.717133,116.306808 33.283932,109.372803 
	C27.649263,109.372803 22.914341,109.372803 17.952183,109.372803 
	C16.538925,126.444893 14.563200,143.156830 13.913908,159.920151 
	C13.053281,182.139694 25.843815,193.617737 48.756432,191.455078 
M283.116028,187.350601 
	C273.604095,160.203995 264.092133,133.057373 254.123840,104.608376 
	C239.138962,133.851669 224.886108,161.666382 210.370514,189.993820 
	C212.276581,190.100128 213.268097,190.075516 214.233704,190.221832 
	C222.588089,191.487701 229.148376,189.948837 231.467392,180.343521 
	C231.789444,179.009583 234.605453,177.533463 236.349182,177.423172 
	C242.149033,177.056274 247.986374,177.281494 253.809341,177.280853 
	C263.532867,177.279785 263.456482,177.307083 266.651398,186.375305 
	C267.161682,187.823608 268.727966,189.993393 269.769043,189.972641 
	C274.375488,189.880920 278.968445,189.111145 283.566284,188.586792 
	C283.518463,188.427444 283.470642,188.268082 283.116028,187.350601 
M166.267365,122.718788 
	C164.313858,145.019440 162.360352,167.320099 160.378784,189.941132 
	C176.195908,189.941132 191.422775,189.941132 207.050049,189.941132 
	C207.479492,185.187103 207.887817,180.666809 208.360245,175.437103 
	C197.574188,175.437103 187.551483,175.437103 177.164246,175.437103 
	C179.095627,153.005447 180.968781,131.250214 182.860565,109.278343 
	C177.558502,109.278343 172.810562,109.278343 167.585724,109.278343 
	C167.178406,113.597130 166.791260,117.702148 166.267365,122.718788 
z"/>
<path fill="#F9FDFE" opacity="1.000000" stroke="none" 
	d="
M48.324692,191.524902 
	C25.843815,193.617737 13.053281,182.139694 13.913908,159.920151 
	C14.563200,143.156830 16.538925,126.444893 17.952183,109.372803 
	C22.914341,109.372803 27.649263,109.372803 33.283932,109.372803 
	C32.717133,116.306808 32.181557,123.175461 31.588390,130.039139 
	C30.757912,139.648773 29.612646,149.240219 29.100416,158.865967 
	C28.501141,170.127441 32.909832,176.035690 41.798069,176.888214 
	C51.424335,177.811554 59.554417,171.431381 60.876740,161.162201 
	C62.255997,150.450836 62.972549,139.654068 63.975563,128.894348 
	C64.576256,122.450439 65.170685,116.005943 65.791580,109.306526 
	C70.896454,109.306526 75.638718,109.306526 81.028984,109.306526 
	C80.699226,113.508476 80.431252,117.574829 80.052505,121.630844 
	C78.754181,135.534698 78.065475,149.535858 75.921364,163.309540 
	C73.539810,178.608551 64.235291,188.271667 48.324692,191.524902 
z"/>
<path fill="#F8FDFE" opacity="1.000000" stroke="none" 
	d="
M283.269409,187.729675 
	C283.470642,188.268082 283.518463,188.427444 283.566284,188.586792 
	C278.968445,189.111145 274.375488,189.880920 269.769043,189.972641 
	C268.727966,189.993393 267.161682,187.823608 266.651398,186.375305 
	C263.456482,177.307083 263.532867,177.279785 253.809341,177.280853 
	C247.986374,177.281494 242.149033,177.056274 236.349182,177.423172 
	C234.605453,177.533463 231.789444,179.009583 231.467392,180.343521 
	C229.148376,189.948837 222.588089,191.487701 214.233704,190.221832 
	C213.268097,190.075516 212.276581,190.100128 210.370514,189.993820 
	C224.886108,161.666382 239.138962,133.851669 254.123840,104.608376 
	C264.092133,133.057373 273.604095,160.203995 283.269409,187.729675 
M252.885620,140.791977 
	C252.582825,139.882828 252.280014,138.973679 251.578430,136.867172 
	C248.317139,144.404785 245.507736,150.897995 242.189743,157.929047 
	C241.425003,159.656860 240.660263,161.384689 239.714462,163.521591 
	C246.639801,163.521591 252.793518,163.521591 259.729675,163.521591 
	C257.345703,155.807968 255.124741,148.621918 252.885620,140.791977 
z"/>
<path fill="#F7FDFE" opacity="1.000000" stroke="none" 
	d="
M149.044388,167.977570 
	C148.679840,173.121124 148.604202,178.311203 147.787369,183.381897 
	C147.517029,185.060150 145.636002,187.103577 143.984024,187.836670 
	C129.632721,194.205322 115.252106,194.478622 102.226089,185.061386 
	C89.397415,175.786835 86.524780,162.191772 88.792557,147.216049 
	C91.987000,126.120872 104.019447,112.600784 123.664009,108.551300 
	C132.950745,106.636955 142.267807,107.021759 150.833038,111.816986 
	C152.177292,112.569557 153.860718,114.356834 153.832626,115.631409 
	C153.720825,120.703781 152.993454,125.762581 152.409210,131.686539 
	C142.986755,121.954063 132.240768,120.831970 121.049835,124.880341 
	C105.726059,130.423767 98.544502,152.712189 107.103676,166.620575 
	C112.946327,176.114716 126.278099,179.671524 138.212616,174.528320 
	C141.817352,172.974854 144.955246,170.338043 148.649384,168.094788 
	C148.991791,167.992081 149.044388,167.977570 149.044388,167.977570 
z"/>
<path fill="#F9FDFE" opacity="1.000000" stroke="none" 
	d="
M166.335739,122.262985 
	C166.791260,117.702148 167.178406,113.597130 167.585724,109.278343 
	C172.810562,109.278343 177.558502,109.278343 182.860565,109.278343 
	C180.968781,131.250214 179.095627,153.005447 177.164246,175.437103 
	C187.551483,175.437103 197.574188,175.437103 208.360245,175.437103 
	C207.887817,180.666809 207.479492,185.187103 207.050049,189.941132 
	C191.422775,189.941132 176.195908,189.941132 160.378784,189.941132 
	C162.360352,167.320099 164.313858,145.019440 166.335739,122.262985 
z"/>
<path fill="#F7FDFE" opacity="1.000000" stroke="none" 
	d="
M148.980011,168.016510 
	C149.076218,167.978500 149.184204,167.916061 149.292206,167.853622 
	C149.138733,167.812592 148.985245,167.771545 148.938080,167.854034 
	C149.044388,167.977570 148.991791,167.992081 148.980011,168.016510 
z"/>
<path fill="#3988C0" opacity="1.000000" stroke="none" 
	d="
M242.698334,157.391190 
	C245.507736,150.897995 248.317139,144.404785 251.578430,136.867172 
	C252.280014,138.973679 252.582825,139.882828 252.822906,141.429993 
	C254.094818,148.418869 255.429459,154.769730 256.979370,162.144867 
	C253.683853,162.144867 250.626297,161.959534 247.600922,162.192490 
	C243.946762,162.473877 242.364716,161.002426 242.698334,157.391190 
z"/>
<path fill="#5490BA" opacity="1.000000" stroke="none" 
	d="
M242.444031,157.660126 
	C242.364716,161.002426 243.946762,162.473877 247.600922,162.192490 
	C250.626297,161.959534 253.683853,162.144867 256.979370,162.144867 
	C255.429459,154.769730 254.094818,148.418869 252.832001,141.751953 
	C255.124741,148.621918 257.345703,155.807968 259.729675,163.521591 
	C252.793518,163.521591 246.639801,163.521591 239.714462,163.521591 
	C240.660263,161.384689 241.425003,159.656860 242.444031,157.660126 
z"/>
</svg>