<svg version="1.1" id="Layer_1" xmlns="http://www.w3.org/2000/svg" xmlns:xlink="http://www.w3.org/1999/xlink" x="0px" y="0px"
	 width="100%" viewBox="0 0 1472 318" enable-background="new 0 0 1472 318" xml:space="preserve">
<path fill="#FEFEFE" opacity="1.000000" stroke="none" 
	d="
M1015.000000,319.000000 
	C676.666687,319.000000 338.833374,319.000000 1.000045,319.000000 
	C1.000030,213.000031 1.000030,107.000053 1.000015,1.000060 
	C491.666626,1.000040 982.333252,1.000040 1473.000000,1.000020 
	C1473.000000,106.999939 1473.000000,212.999878 1473.000000,318.999908 
	C1320.500000,319.000000 1168.000000,319.000000 1015.000000,319.000000 
M269.500000,17.919449 
	C182.081741,17.919449 94.663483,17.919449 7.212748,17.919449 
	C7.212748,112.620682 7.212748,206.686996 7.212748,300.906372 
	C208.398453,300.906372 409.295715,300.906372 610.477295,300.906372 
	C610.477295,206.609100 610.477295,112.548111 610.477295,17.919426 
	C497.022675,17.919426 383.761353,17.919426 269.500000,17.919449 
M906.079102,167.528442 
	C912.351990,167.528442 918.624878,167.528442 925.202515,167.528442 
	C925.202515,152.420395 925.160217,137.941040 925.237305,123.462326 
	C925.253174,120.482643 925.427368,117.446259 926.025391,114.538185 
	C927.709045,106.351074 933.796570,101.556091 941.144775,102.317719 
	C948.798157,103.110962 952.009521,107.229225 952.061523,116.761017 
	C952.142334,131.588745 952.083374,146.417221 952.083557,161.245392 
	C952.083618,163.006134 952.083557,164.766891 952.083557,166.605743 
	C959.682861,166.605743 966.605225,166.605743 973.985107,166.605743 
	C973.985107,149.420166 974.052979,132.470459 973.936462,115.522041 
	C973.908020,111.379295 973.644836,107.167633 972.843384,103.115463 
	C971.193604,94.774483 966.658386,88.335495 958.511353,85.250771 
	C945.741699,80.415764 933.598022,83.879265 924.902161,94.427933 
	C924.127563,95.367523 923.282959,96.249496 922.254639,97.400261 
	C917.276794,87.881042 909.622253,83.263382 899.449707,83.235413 
	C889.433044,83.207863 881.557678,87.864914 874.972473,97.067352 
	C874.972473,92.224907 874.972473,89.087433 874.972473,85.837311 
	C868.195312,85.837311 861.652893,85.837311 855.170898,85.837311 
	C855.170898,113.445923 855.170898,140.686081 855.170898,167.897186 
	C862.404785,167.897186 869.322998,167.897186 876.672058,167.897186 
	C876.672058,165.989548 876.672058,164.358597 876.672119,162.727646 
	C876.672852,149.232346 876.438416,135.730576 876.810059,122.245506 
	C876.929504,117.909737 877.952271,113.289665 879.797852,109.383705 
	C882.509521,103.644821 888.792908,101.594734 895.196045,103.216667 
	C900.094971,104.457588 902.650818,108.021271 903.195740,114.533165 
	C903.376038,116.687378 903.423950,118.857750 903.426880,121.020882 
	C903.446228,135.015976 903.383301,149.011597 903.512817,163.005524 
	C903.526733,164.510117 904.603455,166.004852 906.079102,167.528442 
M690.483276,165.082489 
	C707.469421,169.964706 724.448120,170.315445 740.718140,162.940155 
	C762.576538,153.031677 766.743408,122.666473 747.975403,108.984062 
	C742.006592,104.632622 734.244080,102.503807 727.046448,100.135559 
	C717.923889,97.133904 708.290588,95.581757 699.343872,92.178551 
	C691.384644,89.150955 690.486755,79.873032 696.770996,74.271927 
	C704.399475,67.472694 722.833923,67.976707 729.569702,75.652031 
	C732.298096,78.760963 733.764343,82.977570 735.868530,86.805756 
	C742.483887,86.805756 749.454834,86.805756 756.614441,86.805756 
	C755.571899,75.324768 751.625671,65.659798 741.965637,58.990639 
	C733.697632,53.282581 724.294495,51.278194 714.509827,51.303795 
	C700.789429,51.339691 687.529907,53.226536 677.373840,63.944206 
	C664.020508,78.035851 667.744507,102.478394 685.011536,111.153267 
	C691.302795,114.313980 698.398315,115.921043 705.194946,118.016251 
	C713.275818,120.507324 721.530334,122.470612 729.513245,125.230392 
	C734.015747,126.786942 736.702576,130.512131 736.985962,135.537796 
	C737.264282,140.474045 735.332031,144.510208 731.077271,146.856735 
	C721.816406,151.964157 711.984558,151.933243 702.078003,149.027359 
	C693.761780,146.587997 690.957825,139.822342 689.711731,132.267288 
	C682.099060,132.267288 674.821716,132.267288 667.542480,132.267288 
	C668.120422,148.400314 675.087830,158.560638 690.483276,165.082489 
M1143.301147,142.823883 
	C1140.136963,142.823883 1136.956665,143.026001 1133.812744,142.773331 
	C1129.770386,142.448425 1126.621948,142.958725 1124.365479,147.093582 
	C1123.222656,149.187546 1120.536255,150.938782 1118.169189,151.782349 
	C1104.380371,156.696152 1091.697998,148.041946 1090.710205,132.733810 
	C1110.103149,132.733810 1129.467773,132.733810 1150.212646,132.733810 
	C1148.198730,123.672119 1147.241943,115.139313 1144.369873,107.308990 
	C1138.032837,90.031487 1122.536011,81.255089 1104.464111,83.568237 
	C1085.397705,86.008675 1071.971924,99.398376 1069.534912,120.187912 
	C1067.562134,137.017334 1071.925293,152.318817 1086.918335,162.130905 
	C1101.330444,171.562790 1116.875366,172.495010 1132.355957,164.388260 
	C1140.838989,159.945984 1145.960938,152.680328 1148.196289,143.003204 
	C1146.535889,142.928009 1145.387207,142.875992 1143.301147,142.823883 
M1038.673950,105.500336 
	C1038.467407,116.154137 1038.788818,126.852798 1037.888306,137.447617 
	C1037.161133,146.005280 1029.471924,151.367126 1020.818176,150.733658 
	C1012.027283,150.090149 1008.151917,145.605652 1008.091553,135.606506 
	C1008.002991,120.940514 1008.066956,106.273605 1008.066040,91.607086 
	C1008.065918,89.677559 1008.066040,87.748032 1008.066040,85.757355 
	C1000.525330,85.757355 993.594910,85.757355 986.475769,85.757355 
	C986.475769,105.324165 985.583923,124.660698 986.730835,143.875549 
	C987.840393,162.465408 1003.246704,172.763321 1021.419800,167.905396 
	C1027.486816,166.283600 1032.858398,162.060669 1038.469727,159.068451 
	C1038.600220,160.957474 1038.798584,163.827499 1038.995728,166.681473 
	C1046.233643,166.681473 1053.037109,166.681473 1060.072754,166.681473 
	C1060.072754,139.619751 1060.072754,112.721931 1060.072754,85.782959 
	C1052.848755,85.782959 1045.946045,85.782959 1038.673950,85.782959 
	C1038.673950,92.225563 1038.673950,98.363190 1038.673950,105.500336 
M790.292419,86.688881 
	C778.678223,91.365524 772.394226,99.649345 772.285034,110.845367 
	C775.253906,110.845367 778.223633,110.845367 781.193359,110.845367 
	C784.344971,110.845367 787.496582,110.845367 790.568298,110.845367 
	C793.730225,100.210068 807.941528,95.174644 816.771118,101.734970 
	C818.778076,103.226135 820.344604,106.814346 820.158508,109.290337 
	C820.001770,111.375214 817.325439,113.785561 815.176575,115.061829 
	C813.004028,116.352165 810.117432,116.465355 807.528564,117.024803 
	C799.588196,118.740707 791.447876,119.821419 783.749695,122.286888 
	C775.936646,124.789146 770.395630,130.257431 768.898499,138.889206 
	C765.971802,155.763092 775.887878,167.899109 793.629700,168.917496 
	C803.873352,169.505478 813.494751,167.970230 819.645081,159.920105 
	C821.289062,162.611038 822.525879,166.921188 824.328979,167.172760 
	C830.587219,168.045929 837.042175,167.509811 842.681213,167.509811 
	C842.063965,163.402924 841.119263,159.885681 841.077698,156.357788 
	C840.905029,141.705582 841.116089,127.049095 840.974609,112.396225 
	C840.820496,96.439201 832.805908,87.375336 817.150330,84.807053 
	C808.289551,83.353462 799.588196,83.723701 790.292419,86.688881 
M1159.972290,62.559563 
	C1159.972290,97.268448 1159.972290,131.977325 1159.972290,166.505371 
	C1167.695068,166.505371 1174.609009,166.505371 1181.612305,166.505371 
	C1181.612305,128.774948 1181.612305,91.382095 1181.612305,53.793045 
	C1174.317261,53.793045 1167.262573,53.793045 1159.972290,53.793045 
	C1159.972290,56.603500 1159.972290,59.092327 1159.972290,62.559563 
M1205.489502,85.462433 
	C1202.048462,85.462433 1198.607422,85.462433 1195.262695,85.462433 
	C1195.262695,112.915718 1195.262695,139.764511 1195.262695,166.524704 
	C1202.540039,166.524704 1209.437500,166.524704 1216.509277,166.524704 
	C1216.509277,139.488464 1216.509277,112.778816 1216.509277,85.462532 
	C1213.019897,85.462532 1209.738770,85.462532 1205.489502,85.462433 
M1062.488525,229.975174 
	C1055.576782,229.975174 1048.665039,229.975174 1041.807251,229.975174 
	C1041.807251,222.967499 1041.807251,216.680710 1041.807251,209.876221 
	C1054.046753,209.876221 1066.111084,209.876221 1078.308105,209.876221 
	C1078.308105,207.153290 1078.308105,204.959579 1078.308105,202.830109 
	C1063.209106,202.830109 1048.500122,202.830109 1033.817383,202.830109 
	C1033.817383,224.116837 1033.817383,245.005432 1033.817383,265.999451 
	C1049.049927,265.999451 1063.970703,265.999451 1078.949463,265.999451 
	C1078.949463,263.564758 1078.949463,261.348053 1078.949463,258.773987 
	C1066.356812,258.773987 1054.084106,258.773987 1042.043457,258.773987 
	C1042.043457,251.174515 1042.043457,243.945831 1042.043457,236.343048 
	C1053.228882,236.343048 1063.993164,236.343048 1074.705078,236.343048 
	C1074.705078,234.035797 1074.705078,232.131607 1074.705078,229.975174 
	C1070.769409,229.975174 1067.125610,229.975174 1062.488525,229.975174 
M706.036316,205.362030 
	C695.684082,199.277466 685.015381,198.921860 674.861572,205.148163 
	C665.214294,211.063858 665.700378,224.747391 675.440491,230.377808 
	C678.685486,232.253647 682.449707,233.328857 686.083801,234.409637 
	C690.854797,235.828552 695.837952,236.580673 700.535217,238.188324 
	C705.917664,240.030472 708.199158,243.715775 707.956543,248.739929 
	C707.712585,253.791519 704.570740,257.459930 699.213684,258.948181 
	C686.037964,262.608551 676.961365,257.522430 672.736450,244.085739 
	C670.305420,244.085739 667.867798,244.085739 665.168518,244.085739 
	C665.997498,253.387177 669.900635,260.266510 678.624084,263.521729 
	C687.171509,266.711304 695.967529,266.658875 704.526611,263.593414 
	C711.565430,261.072479 715.691650,255.917191 715.994995,248.221008 
	C716.301636,240.440933 713.094360,234.553467 705.765991,231.603317 
	C701.642761,229.943481 697.186768,229.115479 692.890381,227.879333 
	C688.762024,226.691544 684.375183,226.005219 680.588074,224.121323 
	C674.871643,221.277756 674.517578,214.099243 679.410278,210.008698 
	C687.266235,203.440735 701.608093,206.673798 705.046814,216.288177 
	C706.907166,221.489716 709.795532,220.930023 713.642395,220.057770 
	C712.317200,212.487579 711.251221,210.378967 706.036316,205.362030 
M1436.618042,269.454834 
	C1434.528564,268.725525 1432.439087,267.996246 1430.349609,267.266937 
	C1430.050171,267.686981 1429.750732,268.106995 1429.451294,268.527039 
	C1430.246582,270.441620 1430.756226,272.547363 1431.887695,274.236816 
	C1436.168701,280.630280 1447.153442,283.324615 1456.450073,280.463715 
	C1464.251343,278.063019 1467.936279,272.908386 1467.998047,263.919128 
	C1468.079224,252.095703 1468.018066,240.271286 1468.018188,228.447311 
	C1468.018188,225.859070 1468.018188,223.270828 1468.018188,220.616882 
	C1465.356812,220.616882 1463.396729,220.616882 1461.271362,220.616882 
	C1460.929321,222.048996 1460.616821,223.357971 1460.265015,224.831207 
	C1450.606201,217.435577 1441.032715,217.318359 1433.860840,224.250504 
	C1426.094238,231.757477 1425.015015,247.047928 1431.712036,256.028076 
	C1435.260498,260.786316 1439.968872,263.499207 1446.003418,264.090973 
	C1452.016846,264.680664 1456.783936,262.294189 1461.342407,257.295197 
	C1461.393555,264.423157 1462.378418,270.571533 1455.658081,273.762177 
	C1449.479248,276.695740 1441.175049,275.020386 1436.618042,269.454834 
M1143.316528,280.345337 
	C1145.598022,280.743805 1147.868774,281.402924 1150.162842,281.497589 
	C1163.093018,282.031311 1169.886353,275.814850 1170.136841,262.975891 
	C1170.344482,252.325104 1170.184326,241.667145 1170.186646,231.012360 
	C1170.187378,227.591751 1170.186646,224.171143 1170.186646,220.716415 
	C1167.376099,220.716415 1165.281494,220.716415 1163.186157,220.716415 
	C1162.897827,222.164261 1162.658081,223.368484 1162.390137,224.714172 
	C1151.810059,217.273224 1142.351562,217.394058 1135.291138,224.842239 
	C1127.882812,232.657364 1127.407593,247.853653 1134.358398,256.733063 
	C1137.936157,261.303680 1142.695679,263.567932 1148.493408,264.113190 
	C1154.382446,264.667114 1158.835693,261.899902 1163.456055,257.654694 
	C1163.456055,260.233917 1163.459106,261.886017 1163.455444,263.538086 
	C1163.444092,268.647034 1161.777466,272.600098 1156.400391,274.244019 
	C1150.217407,276.134338 1141.960205,275.078705 1139.764404,271.035706 
	C1137.708496,267.250305 1135.200562,267.560516 1131.791748,268.187622 
	C1132.800049,274.701141 1136.827271,278.165955 1143.316528,280.345337 
M1241.935181,248.463608 
	C1244.947144,260.945740 1252.192017,266.586334 1264.707153,266.192810 
	C1274.323486,265.890442 1280.729248,260.451599 1282.276855,251.229462 
	C1279.983398,251.229462 1277.701416,251.229462 1275.518188,251.229462 
	C1272.543213,258.935059 1267.373535,261.764648 1259.798706,260.030457 
	C1253.324829,258.548279 1248.660767,251.374039 1249.507812,243.752380 
	C1260.903076,243.752380 1272.346680,243.752380 1283.977783,243.752380 
	C1283.977783,241.905487 1284.102539,240.428207 1283.958130,238.977692 
	C1282.841309,227.758026 1276.227539,220.085251 1266.558105,218.713226 
	C1256.088501,217.227646 1246.490479,222.457748 1243.302979,232.470642 
	C1241.796997,237.201599 1242.253418,242.557373 1241.935181,248.463608 
M1306.018677,265.988892 
	C1307.846069,266.057404 1309.675049,266.213013 1311.500610,266.179962 
	C1321.435059,266.000244 1327.851196,260.673431 1329.569580,251.120132 
	C1327.409058,251.120132 1325.272095,251.120132 1323.185425,251.120132 
	C1318.802246,259.487793 1314.069946,261.972748 1306.528809,259.936890 
	C1300.422119,258.288330 1296.100342,251.479263 1296.532593,243.695435 
	C1308.074707,243.695435 1319.648926,243.695435 1331.395874,243.695435 
	C1331.246094,241.432373 1331.223755,239.613556 1330.991089,237.822052 
	C1329.666382,227.621475 1323.415771,220.395844 1314.636963,218.838715 
	C1302.599365,216.703537 1291.972290,223.631409 1289.318726,235.869431 
	C1286.551880,248.629227 1291.201660,262.757782 1306.018677,265.988892 
M769.853760,220.500412 
	C769.853760,235.261475 769.853760,250.022537 769.853760,264.754547 
	C772.548645,264.754547 774.630920,264.754547 777.035461,264.754547 
	C777.035461,255.373672 777.076477,246.239899 777.018494,237.106735 
	C776.988770,232.416885 778.607239,228.583817 782.670105,226.127380 
	C791.035156,221.069916 799.453491,225.726868 799.573792,235.512558 
	C799.693787,245.268600 799.600098,255.027298 799.600098,264.766357 
	C802.338501,264.766357 804.438843,264.766357 806.797241,264.766357 
	C806.797241,253.566528 807.130554,242.589676 806.687012,231.644302 
	C806.358887,223.548340 801.665283,219.460754 793.582825,218.700943 
	C787.274292,218.107880 781.974304,220.225418 776.996704,225.483200 
	C776.996704,217.033844 776.996704,209.627853 776.996704,202.183807 
	C774.404358,202.183807 772.216064,202.183807 769.853638,202.183807 
	C769.853638,208.195724 769.853638,213.848312 769.853760,220.500412 
M831.436890,218.871521 
	C821.247681,221.283463 816.160217,228.359222 814.385986,238.098572 
	C811.099548,256.138336 825.936951,270.443695 842.485779,265.366516 
	C853.908386,261.862030 859.908508,249.626877 857.007080,235.755600 
	C854.516113,223.846558 845.152527,217.421234 831.436890,218.871521 
M946.657776,228.260376 
	C942.787354,234.147003 942.142212,240.699173 943.112366,247.416412 
	C944.661499,258.142639 952.683228,265.710876 962.620789,266.181244 
	C974.362305,266.737030 982.502930,260.927185 985.319031,249.608490 
	C986.067688,246.599670 986.208862,243.356277 986.113586,240.236343 
	C985.807739,230.218567 979.826721,221.967484 971.252319,219.324539 
	C962.084534,216.498688 953.561768,219.423859 946.657776,228.260376 
M1093.880005,254.468903 
	C1093.880005,251.470032 1093.859741,248.471008 1093.885498,245.472351 
	C1093.915527,241.975052 1093.767578,238.458130 1094.085327,234.985275 
	C1094.686401,228.415985 1100.135010,223.930038 1106.790405,224.229584 
	C1113.273315,224.521378 1116.102905,227.978683 1116.114502,235.633255 
	C1116.120483,239.631744 1116.115601,243.630234 1116.115601,247.628723 
	C1116.115601,253.378723 1116.115601,259.128723 1116.115601,264.702515 
	C1119.112549,264.702515 1121.363770,264.702515 1123.774902,264.702515 
	C1123.774902,253.901215 1124.128418,243.415207 1123.675537,232.964142 
	C1123.222900,222.519653 1116.678345,217.056091 1106.430420,218.670135 
	C1102.098755,219.352341 1098.072632,221.973923 1094.001099,223.674896 
	C1093.915894,222.722137 1093.772461,221.119965 1093.612549,219.332428 
	C1091.244019,219.332428 1089.126587,219.332428 1086.710693,219.332428 
	C1086.710693,234.525803 1086.710693,249.607239 1086.710693,264.706573 
	C1089.148315,264.706573 1091.376465,264.706573 1093.880005,264.706573 
	C1093.880005,261.408783 1093.880005,258.431488 1093.880005,254.468903 
M904.542358,252.745117 
	C904.933289,251.477585 905.406067,250.228867 905.702271,248.939590 
	C908.576416,236.428543 903.130859,223.819717 892.951721,220.014374 
	C885.100220,217.079224 877.462402,217.721909 870.982788,223.403137 
	C863.217896,230.211243 861.501953,239.146439 863.522949,248.842392 
	C865.539490,258.516815 872.543823,265.101074 881.153259,266.063934 
	C892.035828,267.281006 899.328613,263.283508 904.542358,252.745117 
M1391.378174,233.486557 
	C1391.544556,233.015488 1391.682251,232.531906 1391.881592,232.075317 
	C1394.473999,226.139709 1400.007568,223.130783 1405.921509,224.431274 
	C1411.498535,225.657715 1413.412354,228.619843 1413.438110,236.074692 
	C1413.444458,237.906754 1413.439209,239.738861 1413.439209,241.570938 
	C1413.439209,249.317520 1413.439209,257.064117 1413.439209,264.778839 
	C1416.256104,264.778839 1418.358643,264.778839 1420.788452,264.778839 
	C1420.788452,253.417862 1421.115234,242.282791 1420.675171,231.178131 
	C1420.373657,223.569580 1415.435303,219.253036 1407.748779,218.505096 
	C1401.289551,217.876556 1395.830200,220.071396 1391.185913,225.274521 
	C1391.030396,222.766724 1390.929321,221.138519 1390.818115,219.347794 
	C1388.523926,219.347794 1386.433350,219.347794 1384.072754,219.347794 
	C1384.072754,234.600220 1384.072754,249.642609 1384.072754,264.834839 
	C1386.409668,264.834839 1388.494629,264.834839 1391.225952,264.834839 
	C1391.225952,254.543823 1391.225952,244.433334 1391.378174,233.486557 
M1221.836426,218.645905 
	C1215.130859,217.670532 1209.504639,219.922256 1204.485718,225.122360 
	C1204.224121,222.753586 1204.038208,221.070786 1203.859863,219.456818 
	C1201.449341,219.456818 1199.376953,219.456818 1197.324707,219.456818 
	C1197.324707,234.801544 1197.324707,249.847443 1197.324707,264.712372 
	C1199.749390,264.712372 1201.838989,264.712372 1204.175537,264.712372 
	C1204.175537,259.452209 1204.090576,254.480438 1204.198242,249.512848 
	C1204.316772,244.039139 1204.106934,238.488419 1204.965820,233.119293 
	C1205.917847,227.166443 1211.952393,223.488998 1218.079224,224.191513 
	C1224.077026,224.879211 1226.796997,228.324402 1226.813721,235.362076 
	C1226.837036,245.126160 1226.819702,254.890366 1226.819702,264.823669 
	C1229.394043,264.823669 1231.476074,264.823669 1233.911377,264.823669 
	C1233.911377,253.211304 1234.191284,241.765778 1233.800781,230.343155 
	C1233.584595,224.024567 1229.591064,220.488327 1221.836426,218.645905 
M746.677307,218.807602 
	C735.345276,217.445847 726.684814,222.441849 722.887268,232.531464 
	C718.652466,243.782944 721.905151,256.895203 730.648926,262.658051 
	C737.917969,267.448975 745.769531,267.563446 753.453125,263.888733 
	C759.335083,261.075714 761.979248,255.865143 762.250183,249.206726 
	C759.799500,249.206726 757.533691,249.206726 755.333313,249.206726 
	C752.909485,257.849304 748.996094,260.982361 741.707581,260.293823 
	C734.242859,259.588654 729.406128,254.025208 728.586182,245.200867 
	C727.621643,234.821457 731.730896,226.865829 739.090942,224.863556 
	C746.916870,222.734543 751.739685,225.455215 755.809387,234.149780 
	C757.964111,234.149780 760.014221,234.149780 762.093994,234.149780 
	C760.782471,225.641815 756.346924,221.115829 746.677307,218.807602 
M996.957214,206.835617 
	C996.378296,211.039551 995.799438,215.243469 995.194275,219.637939 
	C993.295288,219.781601 991.378723,219.926590 989.509155,220.068024 
	C989.509155,222.135757 989.509155,223.852554 989.509155,225.583725 
	C991.765137,225.802872 993.668396,225.987762 996.056519,226.219742 
	C996.056519,239.587677 996.056519,252.628220 996.056519,265.508759 
	C998.665344,265.508759 1000.724731,265.508759 1003.192810,265.508759 
	C1003.192810,252.103516 1003.192810,239.033905 1003.192810,225.630737 
	C1006.226624,225.630737 1008.834412,225.630737 1011.531616,225.630737 
	C1011.531616,223.561966 1011.531616,221.843155 1011.531616,219.746674 
	C1008.622925,219.746674 1006.024414,219.746674 1003.486084,219.746674 
	C1002.138733,209.460907 1002.392883,209.070877 1011.848877,206.833923 
	C1011.779175,205.312393 1011.706970,203.735809 1011.627686,202.005280 
	C1006.117310,201.730896 1000.903503,201.066193 996.957214,206.835617 
M921.797058,222.500305 
	C921.797058,215.910019 921.797058,209.319748 921.797058,202.641220 
	C918.982178,202.641220 916.777710,202.641220 914.609436,202.641220 
	C914.609436,223.847000 914.609436,244.671799 914.609436,265.498718 
	C917.091553,265.498718 919.185120,265.498718 921.796997,265.498718 
	C921.796997,251.316788 921.796997,237.408508 921.797058,222.500305 
M1346.009277,246.560318 
	C1346.009277,245.063171 1346.005493,243.566010 1346.010010,242.068878 
	C1346.043701,230.946152 1350.633911,226.382645 1361.585693,226.502060 
	C1361.585693,224.119476 1361.585693,221.768036 1361.585693,217.750595 
	C1355.800171,220.103790 1350.960449,222.072281 1346.084839,224.055374 
	C1346.032959,223.139404 1345.945923,221.602753 1345.858765,220.066376 
	C1343.367310,220.066376 1341.285889,220.066376 1339.096191,220.066376 
	C1339.096191,235.356277 1339.096191,250.400894 1339.096191,265.617157 
	C1341.442871,265.617157 1343.508423,265.617157 1346.009277,265.617157 
	C1346.009277,259.443207 1346.009277,253.492889 1346.009277,246.560318 
M1216.746094,66.387619 
	C1216.746094,62.271488 1216.746094,58.155354 1216.746094,53.747265 
	C1209.266846,53.747265 1202.223755,53.747265 1195.156494,53.747265 
	C1195.156494,60.258312 1195.156494,66.488144 1195.156494,72.644043 
	C1202.464355,72.644043 1209.488892,72.644043 1216.746094,72.644043 
	C1216.746094,70.628532 1216.746094,68.985832 1216.746094,66.387619 
M1367.932617,220.668121 
	C1367.932617,235.604263 1367.932617,250.540405 1367.932617,265.578552 
	C1370.505737,265.578552 1372.571411,265.578552 1374.753906,265.578552 
	C1374.753906,250.244049 1374.753906,235.170013 1374.753906,219.938232 
	C1372.518677,219.938232 1370.546997,219.938232 1367.932617,220.668121 
M1181.010010,259.379700 
	C1181.010010,261.473175 1181.010010,263.566681 1181.010010,265.500183 
	C1183.803467,265.500183 1185.879639,265.500183 1187.853394,265.500183 
	C1187.853394,250.088364 1187.853394,235.020462 1187.853394,220.150238 
	C1185.392212,220.150238 1183.314575,220.150238 1181.010010,220.150238 
	C1181.010010,233.116577 1181.010010,245.761139 1181.010010,259.379700 
M1181.868652,202.559875 
	C1181.496216,205.326950 1181.123779,208.094009 1180.754150,210.839874 
	C1183.758057,210.839874 1185.965332,210.839874 1187.954834,210.839874 
	C1187.954834,207.871964 1187.954834,205.277390 1187.954834,202.456619 
	C1186.005371,202.456619 1184.358276,202.456619 1181.868652,202.559875 
M1367.891724,210.498291 
	C1370.195068,210.772095 1372.498413,211.045898 1374.775757,211.316605 
	C1374.775757,207.991623 1374.775757,205.400436 1374.775757,202.644852 
	C1372.424561,202.644852 1370.342041,202.644852 1367.818359,202.644852 
	C1367.818359,205.137695 1367.818359,207.425446 1367.891724,210.498291 
z"/>
<path fill="#0E7BB5" opacity="1.000000" stroke="none" 
	d="
M270.000000,17.919437 
	C383.761353,17.919426 497.022675,17.919426 610.477295,17.919426 
	C610.477295,112.548111 610.477295,206.609100 610.477295,300.906372 
	C409.295715,300.906372 208.398453,300.906372 7.212748,300.906372 
	C7.212748,206.686996 7.212748,112.620682 7.212748,17.919449 
	C94.663483,17.919449 182.081741,17.919449 270.000000,17.919437 
M131.866638,134.354721 
	C133.027206,121.358444 134.187775,108.362160 135.360016,95.235214 
	C126.498566,95.235214 118.400291,95.235214 110.055954,95.235214 
	C109.189285,105.209702 108.329803,114.967995 107.496567,124.728523 
	C106.647095,134.679245 105.568741,144.619034 105.054634,154.587555 
	C104.448257,166.344894 103.061592,178.264023 104.297119,189.869858 
	C106.481834,210.391769 123.613823,225.794647 143.325562,226.983734 
	C173.949036,228.831024 197.294968,210.837952 201.872391,180.416519 
	C204.864288,160.532440 206.046387,140.375092 208.003586,120.336685 
	C208.793793,112.246262 209.489273,104.146584 210.250412,95.803848 
	C201.558380,95.803848 193.364273,95.803848 185.085678,95.803848 
	C184.801498,97.622116 184.488907,99.084999 184.354263,100.564079 
	C182.211456,124.100807 180.055908,147.636475 177.981049,171.179245 
	C176.924683,183.165665 173.792053,194.016891 161.558121,199.261719 
	C148.858002,204.706436 130.452789,202.124756 128.220947,181.516357 
	C127.917854,178.717606 127.896744,175.841400 128.149155,173.037445 
	C129.283173,160.440277 130.563110,147.856262 131.866638,134.354721 
M468.721161,105.127831 
	C448.561279,144.382187 428.401428,183.636551 407.897827,223.560165 
	C416.769409,223.560165 424.724243,223.678589 432.667694,223.431091 
	C433.844666,223.394424 435.399292,221.854706 436.039459,220.625214 
	C438.493469,215.912033 440.509430,210.969452 442.998230,206.276520 
	C443.699615,204.953918 445.445251,203.321671 446.731720,203.304367 
	C462.033600,203.098694 477.339203,203.171814 492.842072,203.171814 
	C494.554749,208.976425 496.093781,214.578430 497.916046,220.086731 
	C498.350708,221.400528 499.699066,223.362000 500.681488,223.394730 
	C508.745697,223.663284 516.822754,223.546249 525.662781,223.546249 
	C509.706573,178.098663 494.065735,133.549393 477.870392,87.420677 
	C474.436249,94.030067 471.729797,99.238922 468.721161,105.127831 
M243.464630,178.760834 
	C242.937637,171.518448 241.314041,164.158493 242.075836,157.054306 
	C245.167053,128.227142 267.876282,113.281654 295.713013,118.604942 
	C304.518677,120.288887 311.552673,125.033363 317.834381,132.653809 
	C318.747131,123.033562 319.383392,114.469292 320.466187,105.961853 
	C320.826202,103.132980 320.081604,101.834435 317.678070,100.504799 
	C295.755310,88.377151 263.602753,90.668411 244.104095,106.471947 
	C221.769089,124.574326 213.576050,148.696777 216.635620,176.679520 
	C218.732178,195.854355 227.625320,211.538361 245.709015,219.769592 
	C266.696014,229.322342 287.832886,227.560028 308.313751,217.292343 
	C309.346497,216.774597 310.610779,215.544083 310.716766,214.535080 
	C311.697754,205.197845 312.447540,195.836304 313.228394,186.895477 
	C306.074463,190.839157 299.483734,195.453110 292.200531,198.287842 
	C275.884644,204.638184 251.142639,200.833786 243.464630,178.760834 
M331.998932,195.357269 
	C331.196655,204.585709 330.394409,213.814148 329.566895,223.332977 
	C355.036865,223.332977 379.808319,223.332977 404.950500,223.332977 
	C405.718567,215.456024 406.471924,207.730057 407.288666,199.353973 
	C390.281158,199.353973 373.877258,199.353973 357.134583,199.353973 
	C360.288147,164.317657 363.385529,129.905548 366.504822,95.249939 
	C357.795837,95.249939 349.551056,95.249939 341.078888,95.249939 
	C338.053802,128.468796 335.050171,161.452164 331.998932,195.357269 
z"/>
<path fill="#272324" opacity="1.000000" stroke="none" 
	d="
M905.633179,167.516296 
	C904.603455,166.004852 903.526733,164.510117 903.512817,163.005524 
	C903.383301,149.011597 903.446228,135.015976 903.426880,121.020882 
	C903.423950,118.857750 903.376038,116.687378 903.195740,114.533165 
	C902.650818,108.021271 900.094971,104.457588 895.196045,103.216667 
	C888.792908,101.594734 882.509521,103.644821 879.797852,109.383705 
	C877.952271,113.289665 876.929504,117.909737 876.810059,122.245506 
	C876.438416,135.730576 876.672852,149.232346 876.672119,162.727646 
	C876.672058,164.358597 876.672058,165.989548 876.672058,167.897186 
	C869.322998,167.897186 862.404785,167.897186 855.170898,167.897186 
	C855.170898,140.686081 855.170898,113.445923 855.170898,85.837311 
	C861.652893,85.837311 868.195312,85.837311 874.972473,85.837311 
	C874.972473,89.087433 874.972473,92.224907 874.972473,97.067352 
	C881.557678,87.864914 889.433044,83.207863 899.449707,83.235413 
	C909.622253,83.263382 917.276794,87.881042 922.254639,97.400261 
	C923.282959,96.249496 924.127563,95.367523 924.902161,94.427933 
	C933.598022,83.879265 945.741699,80.415764 958.511353,85.250771 
	C966.658386,88.335495 971.193604,94.774483 972.843384,103.115463 
	C973.644836,107.167633 973.908020,111.379295 973.936462,115.522041 
	C974.052979,132.470459 973.985107,149.420166 973.985107,166.605743 
	C966.605225,166.605743 959.682861,166.605743 952.083557,166.605743 
	C952.083557,164.766891 952.083618,163.006134 952.083557,161.245392 
	C952.083374,146.417221 952.142334,131.588745 952.061523,116.761017 
	C952.009521,107.229225 948.798157,103.110962 941.144775,102.317719 
	C933.796570,101.556091 927.709045,106.351074 926.025391,114.538185 
	C925.427368,117.446259 925.253174,120.482643 925.237305,123.462326 
	C925.160217,137.941040 925.202515,152.420395 925.202515,167.528442 
	C918.624878,167.528442 912.351990,167.528442 905.633179,167.516296 
z"/>
<path fill="#252122" opacity="1.000000" stroke="none" 
	d="
M690.107056,164.981323 
	C675.087830,158.560638 668.120422,148.400314 667.542480,132.267288 
	C674.821716,132.267288 682.099060,132.267288 689.711731,132.267288 
	C690.957825,139.822342 693.761780,146.587997 702.078003,149.027359 
	C711.984558,151.933243 721.816406,151.964157 731.077271,146.856735 
	C735.332031,144.510208 737.264282,140.474045 736.985962,135.537796 
	C736.702576,130.512131 734.015747,126.786942 729.513245,125.230392 
	C721.530334,122.470612 713.275818,120.507324 705.194946,118.016251 
	C698.398315,115.921043 691.302795,114.313980 685.011536,111.153267 
	C667.744507,102.478394 664.020508,78.035851 677.373840,63.944206 
	C687.529907,53.226536 700.789429,51.339691 714.509827,51.303795 
	C724.294495,51.278194 733.697632,53.282581 741.965637,58.990639 
	C751.625671,65.659798 755.571899,75.324768 756.614441,86.805756 
	C749.454834,86.805756 742.483887,86.805756 735.868530,86.805756 
	C733.764343,82.977570 732.298096,78.760963 729.569702,75.652031 
	C722.833923,67.976707 704.399475,67.472694 696.770996,74.271927 
	C690.486755,79.873032 691.384644,89.150955 699.343872,92.178551 
	C708.290588,95.581757 717.923889,97.133904 727.046448,100.135559 
	C734.244080,102.503807 742.006592,104.632622 747.975403,108.984062 
	C766.743408,122.666473 762.576538,153.031677 740.718140,162.940155 
	C724.448120,170.315445 707.469421,169.964706 690.107056,164.981323 
z"/>
<path fill="#262223" opacity="1.000000" stroke="none" 
	d="
M1143.769775,142.823929 
	C1145.387207,142.875992 1146.535889,142.928009 1148.196289,143.003204 
	C1145.960938,152.680328 1140.838989,159.945984 1132.355957,164.388260 
	C1116.875366,172.495010 1101.330444,171.562790 1086.918335,162.130905 
	C1071.925293,152.318817 1067.562134,137.017334 1069.534912,120.187912 
	C1071.971924,99.398376 1085.397705,86.008675 1104.464111,83.568237 
	C1122.536011,81.255089 1138.032837,90.031487 1144.369873,107.308990 
	C1147.241943,115.139313 1148.198730,123.672119 1150.212646,132.733810 
	C1129.467773,132.733810 1110.103149,132.733810 1090.710205,132.733810 
	C1091.697998,148.041946 1104.380371,156.696152 1118.169189,151.782349 
	C1120.536255,150.938782 1123.222656,149.187546 1124.365479,147.093582 
	C1126.621948,142.958725 1129.770386,142.448425 1133.812744,142.773331 
	C1136.956665,143.026001 1140.136963,142.823883 1143.769775,142.823929 
M1120.667847,103.756294 
	C1114.130493,98.679840 1107.051270,98.787506 1100.089966,102.323952 
	C1094.201782,105.315239 1091.577881,110.673714 1091.149048,117.260025 
	C1103.297974,117.260025 1115.027466,117.260025 1127.008057,117.260025 
	C1126.841187,111.895920 1124.778442,107.740242 1120.667847,103.756294 
z"/>
<path fill="#262223" opacity="1.000000" stroke="none" 
	d="
M1038.673950,105.000580 
	C1038.673950,98.363190 1038.673950,92.225563 1038.673950,85.782959 
	C1045.946045,85.782959 1052.848755,85.782959 1060.072754,85.782959 
	C1060.072754,112.721931 1060.072754,139.619751 1060.072754,166.681473 
	C1053.037109,166.681473 1046.233643,166.681473 1038.995728,166.681473 
	C1038.798584,163.827499 1038.600220,160.957474 1038.469727,159.068451 
	C1032.858398,162.060669 1027.486816,166.283600 1021.419800,167.905396 
	C1003.246704,172.763321 987.840393,162.465408 986.730835,143.875549 
	C985.583923,124.660698 986.475769,105.324165 986.475769,85.757355 
	C993.594910,85.757355 1000.525330,85.757355 1008.066040,85.757355 
	C1008.066040,87.748032 1008.065918,89.677559 1008.066040,91.607086 
	C1008.066956,106.273605 1008.002991,120.940514 1008.091553,135.606506 
	C1008.151917,145.605652 1012.027283,150.090149 1020.818176,150.733658 
	C1029.471924,151.367126 1037.161133,146.005280 1037.888306,137.447617 
	C1038.788818,126.852798 1038.467407,116.154137 1038.673950,105.000580 
z"/>
<path fill="#262324" opacity="1.000000" stroke="none" 
	d="
M790.640381,86.504517 
	C799.588196,83.723701 808.289551,83.353462 817.150330,84.807053 
	C832.805908,87.375336 840.820496,96.439201 840.974609,112.396225 
	C841.116089,127.049095 840.905029,141.705582 841.077698,156.357788 
	C841.119263,159.885681 842.063965,163.402924 842.681213,167.509811 
	C837.042175,167.509811 830.587219,168.045929 824.328979,167.172760 
	C822.525879,166.921188 821.289062,162.611038 819.645081,159.920105 
	C813.494751,167.970230 803.873352,169.505478 793.629700,168.917496 
	C775.887878,167.899109 765.971802,155.763092 768.898499,138.889206 
	C770.395630,130.257431 775.936646,124.789146 783.749695,122.286888 
	C791.447876,119.821419 799.588196,118.740707 807.528564,117.024803 
	C810.117432,116.465355 813.004028,116.352165 815.176575,115.061829 
	C817.325439,113.785561 820.001770,111.375214 820.158508,109.290337 
	C820.344604,106.814346 818.778076,103.226135 816.771118,101.734970 
	C807.941528,95.174644 793.730225,100.210068 790.568298,110.845367 
	C787.496582,110.845367 784.344971,110.845367 781.193359,110.845367 
	C778.223633,110.845367 775.253906,110.845367 772.285034,110.845367 
	C772.394226,99.649345 778.678223,91.365524 790.640381,86.504517 
M820.830627,131.616333 
	C820.830627,129.833069 820.830627,128.049805 820.830627,126.151093 
	C812.695312,128.374893 804.914734,130.457947 797.167786,132.659576 
	C795.764343,133.058411 794.436523,133.842667 793.181274,134.622131 
	C788.635254,137.444931 788.313416,141.885666 789.060181,146.487411 
	C789.735046,150.646317 792.757080,152.411026 796.667480,153.235825 
	C811.102234,156.280472 820.820984,147.993607 820.830627,131.616333 
z"/>
<path fill="#272324" opacity="1.000000" stroke="none" 
	d="
M1159.972290,62.070358 
	C1159.972290,59.092327 1159.972290,56.603500 1159.972290,53.793045 
	C1167.262573,53.793045 1174.317261,53.793045 1181.612305,53.793045 
	C1181.612305,91.382095 1181.612305,128.774948 1181.612305,166.505371 
	C1174.609009,166.505371 1167.695068,166.505371 1159.972290,166.505371 
	C1159.972290,131.977325 1159.972290,97.268448 1159.972290,62.070358 
z"/>
<path fill="#282526" opacity="1.000000" stroke="none" 
	d="
M1205.973633,85.462479 
	C1209.738770,85.462532 1213.019897,85.462532 1216.509277,85.462532 
	C1216.509277,112.778816 1216.509277,139.488464 1216.509277,166.524704 
	C1209.437500,166.524704 1202.540039,166.524704 1195.262695,166.524704 
	C1195.262695,139.764511 1195.262695,112.915718 1195.262695,85.462433 
	C1198.607422,85.462433 1202.048462,85.462433 1205.973633,85.462479 
z"/>
<path fill="#2F2B2C" opacity="1.000000" stroke="none" 
	d="
M1062.985107,229.975174 
	C1067.125610,229.975174 1070.769409,229.975174 1074.705078,229.975174 
	C1074.705078,232.131607 1074.705078,234.035797 1074.705078,236.343048 
	C1063.993164,236.343048 1053.228882,236.343048 1042.043457,236.343048 
	C1042.043457,243.945831 1042.043457,251.174515 1042.043457,258.773987 
	C1054.084106,258.773987 1066.356812,258.773987 1078.949463,258.773987 
	C1078.949463,261.348053 1078.949463,263.564758 1078.949463,265.999451 
	C1063.970703,265.999451 1049.049927,265.999451 1033.817383,265.999451 
	C1033.817383,245.005432 1033.817383,224.116837 1033.817383,202.830109 
	C1048.500122,202.830109 1063.209106,202.830109 1078.308105,202.830109 
	C1078.308105,204.959579 1078.308105,207.153290 1078.308105,209.876221 
	C1066.111084,209.876221 1054.046753,209.876221 1041.807251,209.876221 
	C1041.807251,216.680710 1041.807251,222.967499 1041.807251,229.975174 
	C1048.665039,229.975174 1055.576782,229.975174 1062.985107,229.975174 
z"/>
<path fill="#2B2728" opacity="1.000000" stroke="none" 
	d="
M706.311157,205.603165 
	C711.251221,210.378967 712.317200,212.487579 713.642395,220.057770 
	C709.795532,220.930023 706.907166,221.489716 705.046814,216.288177 
	C701.608093,206.673798 687.266235,203.440735 679.410278,210.008698 
	C674.517578,214.099243 674.871643,221.277756 680.588074,224.121323 
	C684.375183,226.005219 688.762024,226.691544 692.890381,227.879333 
	C697.186768,229.115479 701.642761,229.943481 705.765991,231.603317 
	C713.094360,234.553467 716.301636,240.440933 715.994995,248.221008 
	C715.691650,255.917191 711.565430,261.072479 704.526611,263.593414 
	C695.967529,266.658875 687.171509,266.711304 678.624084,263.521729 
	C669.900635,260.266510 665.997498,253.387177 665.168518,244.085739 
	C667.867798,244.085739 670.305420,244.085739 672.736450,244.085739 
	C676.961365,257.522430 686.037964,262.608551 699.213684,258.948181 
	C704.570740,257.459930 707.712585,253.791519 707.956543,248.739929 
	C708.199158,243.715775 705.917664,240.030472 700.535217,238.188324 
	C695.837952,236.580673 690.854797,235.828552 686.083801,234.409637 
	C682.449707,233.328857 678.685486,232.253647 675.440491,230.377808 
	C665.700378,224.747391 665.214294,211.063858 674.861572,205.148163 
	C685.015381,198.921860 695.684082,199.277466 706.311157,205.603165 
z"/>
<path fill="#2C2829" opacity="1.000000" stroke="none" 
	d="
M1436.784058,269.828003 
	C1441.175049,275.020386 1449.479248,276.695740 1455.658081,273.762177 
	C1462.378418,270.571533 1461.393555,264.423157 1461.342407,257.295197 
	C1456.783936,262.294189 1452.016846,264.680664 1446.003418,264.090973 
	C1439.968872,263.499207 1435.260498,260.786316 1431.712036,256.028076 
	C1425.015015,247.047928 1426.094238,231.757477 1433.860840,224.250504 
	C1441.032715,217.318359 1450.606201,217.435577 1460.265015,224.831207 
	C1460.616821,223.357971 1460.929321,222.048996 1461.271362,220.616882 
	C1463.396729,220.616882 1465.356812,220.616882 1468.018188,220.616882 
	C1468.018188,223.270828 1468.018188,225.859070 1468.018188,228.447311 
	C1468.018066,240.271286 1468.079224,252.095703 1467.998047,263.919128 
	C1467.936279,272.908386 1464.251343,278.063019 1456.450073,280.463715 
	C1447.153442,283.324615 1436.168701,280.630280 1431.887695,274.236816 
	C1430.756226,272.547363 1430.246582,270.441620 1429.451294,268.527039 
	C1429.750732,268.106995 1430.050171,267.686981 1430.349609,267.266937 
	C1432.439087,267.996246 1434.528564,268.725525 1436.784058,269.828003 
M1459.700806,251.933640 
	C1460.445312,246.927582 1461.909058,241.900436 1461.763184,236.920471 
	C1461.552979,229.747742 1456.455566,225.358307 1449.517456,225.022766 
	C1442.249146,224.671249 1437.266479,228.592941 1436.026123,236.081909 
	C1435.519409,239.140259 1435.474487,242.349564 1435.740967,245.445328 
	C1436.224243,251.060745 1438.397217,256.035065 1444.280762,257.638977 
	C1450.137939,259.235718 1455.471558,257.808746 1459.700806,251.933640 
z"/>
<path fill="#2A2627" opacity="1.000000" stroke="none" 
	d="
M1142.939453,280.227570 
	C1136.827271,278.165955 1132.800049,274.701141 1131.791748,268.187622 
	C1135.200562,267.560516 1137.708496,267.250305 1139.764404,271.035706 
	C1141.960205,275.078705 1150.217407,276.134338 1156.400391,274.244019 
	C1161.777466,272.600098 1163.444092,268.647034 1163.455444,263.538086 
	C1163.459106,261.886017 1163.456055,260.233917 1163.456055,257.654694 
	C1158.835693,261.899902 1154.382446,264.667114 1148.493408,264.113190 
	C1142.695679,263.567932 1137.936157,261.303680 1134.358398,256.733063 
	C1127.407593,247.853653 1127.882812,232.657364 1135.291138,224.842239 
	C1142.351562,217.394058 1151.810059,217.273224 1162.390137,224.714172 
	C1162.658081,223.368484 1162.897827,222.164261 1163.186157,220.716415 
	C1165.281494,220.716415 1167.376099,220.716415 1170.186646,220.716415 
	C1170.186646,224.171143 1170.187378,227.591751 1170.186646,231.012360 
	C1170.184326,241.667145 1170.344482,252.325104 1170.136841,262.975891 
	C1169.886353,275.814850 1163.093018,282.031311 1150.162842,281.497589 
	C1147.868774,281.402924 1145.598022,280.743805 1142.939453,280.227570 
M1142.601074,254.971649 
	C1151.193115,261.269928 1161.587402,258.027527 1163.946045,247.800766 
	C1164.949707,243.449753 1164.714233,238.554749 1163.914062,234.109970 
	C1162.862061,228.265396 1158.498901,225.325226 1152.432739,225.016937 
	C1146.047852,224.692459 1141.645264,227.282349 1139.674683,233.117050 
	C1137.176880,240.512451 1137.265747,247.773834 1142.601074,254.971649 
z"/>
<path fill="#2D292A" opacity="1.000000" stroke="none" 
	d="
M1241.877930,248.046829 
	C1242.253418,242.557373 1241.796997,237.201599 1243.302979,232.470642 
	C1246.490479,222.457748 1256.088501,217.227646 1266.558105,218.713226 
	C1276.227539,220.085251 1282.841309,227.758026 1283.958130,238.977692 
	C1284.102539,240.428207 1283.977783,241.905487 1283.977783,243.752380 
	C1272.346680,243.752380 1260.903076,243.752380 1249.507812,243.752380 
	C1248.660767,251.374039 1253.324829,258.548279 1259.798706,260.030457 
	C1267.373535,261.764648 1272.543213,258.935059 1275.518188,251.229462 
	C1277.701416,251.229462 1279.983398,251.229462 1282.276855,251.229462 
	C1280.729248,260.451599 1274.323486,265.890442 1264.707153,266.192810 
	C1252.192017,266.586334 1244.947144,260.945740 1241.877930,248.046829 
M1274.027100,238.826157 
	C1274.608643,237.654846 1275.831665,236.384399 1275.668579,235.328217 
	C1274.546387,228.066559 1269.003662,223.631943 1262.196777,224.229507 
	C1254.705688,224.887146 1249.605713,230.530960 1249.264526,238.830246 
	C1257.220337,238.830246 1265.167236,238.830246 1274.027100,238.826157 
z"/>
<path fill="#2C292A" opacity="1.000000" stroke="none" 
	d="
M1305.587646,265.933960 
	C1291.201660,262.757782 1286.551880,248.629227 1289.318726,235.869431 
	C1291.972290,223.631409 1302.599365,216.703537 1314.636963,218.838715 
	C1323.415771,220.395844 1329.666382,227.621475 1330.991089,237.822052 
	C1331.223755,239.613556 1331.246094,241.432373 1331.395874,243.695435 
	C1319.648926,243.695435 1308.074707,243.695435 1296.532593,243.695435 
	C1296.100342,251.479263 1300.422119,258.288330 1306.528809,259.936890 
	C1314.069946,261.972748 1318.802246,259.487793 1323.185425,251.120132 
	C1325.272095,251.120132 1327.409058,251.120132 1329.569580,251.120132 
	C1327.851196,260.673431 1321.435059,266.000244 1311.500610,266.179962 
	C1309.675049,266.213013 1307.846069,266.057404 1305.587646,265.933960 
M1308.107056,224.446716 
	C1300.617065,226.448624 1297.338989,230.340897 1296.313843,238.552795 
	C1305.188477,238.552795 1314.045654,238.552795 1322.884521,238.552795 
	C1323.427002,228.671524 1316.440308,223.338455 1308.107056,224.446716 
z"/>
<path fill="#262324" opacity="1.000000" stroke="none" 
	d="
M769.853699,220.000641 
	C769.853638,213.848312 769.853638,208.195724 769.853638,202.183807 
	C772.216064,202.183807 774.404358,202.183807 776.996704,202.183807 
	C776.996704,209.627853 776.996704,217.033844 776.996704,225.483200 
	C781.974304,220.225418 787.274292,218.107880 793.582825,218.700943 
	C801.665283,219.460754 806.358887,223.548340 806.687012,231.644302 
	C807.130554,242.589676 806.797241,253.566528 806.797241,264.766357 
	C804.438843,264.766357 802.338501,264.766357 799.600098,264.766357 
	C799.600098,255.027298 799.693787,245.268600 799.573792,235.512558 
	C799.453491,225.726868 791.035156,221.069916 782.670105,226.127380 
	C778.607239,228.583817 776.988770,232.416885 777.018494,237.106735 
	C777.076477,246.239899 777.035461,255.373672 777.035461,264.754547 
	C774.630920,264.754547 772.548645,264.754547 769.853760,264.754547 
	C769.853760,250.022537 769.853760,235.261475 769.853699,220.000641 
z"/>
<path fill="#2D292A" opacity="1.000000" stroke="none" 
	d="
M831.841919,218.818390 
	C845.152527,217.421234 854.516113,223.846558 857.007080,235.755600 
	C859.908508,249.626877 853.908386,261.862030 842.485779,265.366516 
	C825.936951,270.443695 811.099548,256.138336 814.385986,238.098572 
	C816.160217,228.359222 821.247681,221.283463 831.841919,218.818390 
M840.713379,259.895203 
	C851.258362,256.936676 853.027283,241.615753 849.345581,233.061951 
	C846.929688,227.448959 842.340576,224.091385 836.652100,224.227737 
	C830.795654,224.368103 825.933655,227.024643 824.287537,232.608383 
	C822.883667,237.370575 822.254333,242.772720 822.948853,247.654709 
	C824.323181,257.315796 830.278503,261.202759 840.713379,259.895203 
z"/>
<path fill="#2C2829" opacity="1.000000" stroke="none" 
	d="
M946.848267,227.947693 
	C953.561768,219.423859 962.084534,216.498688 971.252319,219.324539 
	C979.826721,221.967484 985.807739,230.218567 986.113586,240.236343 
	C986.208862,243.356277 986.067688,246.599670 985.319031,249.608490 
	C982.502930,260.927185 974.362305,266.737030 962.620789,266.181244 
	C952.683228,265.710876 944.661499,258.142639 943.112366,247.416412 
	C942.142212,240.699173 942.787354,234.147003 946.848267,227.947693 
M951.620056,235.602737 
	C951.447876,239.402313 950.741516,243.268967 951.208557,246.988281 
	C952.376221,256.287201 959.302429,261.546143 967.794983,260.145050 
	C976.409546,258.723877 981.268250,249.313934 979.263306,237.934204 
	C977.809204,229.681015 973.335266,224.946945 966.343140,224.262894 
	C959.837402,223.626419 954.941406,227.205643 951.620056,235.602737 
z"/>
<path fill="#332F30" opacity="1.000000" stroke="none" 
	d="
M1093.880005,254.961548 
	C1093.880005,258.431488 1093.880005,261.408783 1093.880005,264.706573 
	C1091.376465,264.706573 1089.148315,264.706573 1086.710693,264.706573 
	C1086.710693,249.607239 1086.710693,234.525803 1086.710693,219.332428 
	C1089.126587,219.332428 1091.244019,219.332428 1093.612549,219.332428 
	C1093.772461,221.119965 1093.915894,222.722137 1094.001099,223.674896 
	C1098.072632,221.973923 1102.098755,219.352341 1106.430420,218.670135 
	C1116.678345,217.056091 1123.222900,222.519653 1123.675537,232.964142 
	C1124.128418,243.415207 1123.774902,253.901215 1123.774902,264.702515 
	C1121.363770,264.702515 1119.112549,264.702515 1116.115601,264.702515 
	C1116.115601,259.128723 1116.115601,253.378723 1116.115601,247.628723 
	C1116.115601,243.630234 1116.120483,239.631744 1116.114502,235.633255 
	C1116.102905,227.978683 1113.273315,224.521378 1106.790405,224.229584 
	C1100.135010,223.930038 1094.686401,228.415985 1094.085327,234.985275 
	C1093.767578,238.458130 1093.915527,241.975052 1093.885498,245.472351 
	C1093.859741,248.471008 1093.880005,251.470032 1093.880005,254.961548 
z"/>
<path fill="#2B2728" opacity="1.000000" stroke="none" 
	d="
M904.359985,253.094177 
	C899.328613,263.283508 892.035828,267.281006 881.153259,266.063934 
	C872.543823,265.101074 865.539490,258.516815 863.522949,248.842392 
	C861.501953,239.146439 863.217896,230.211243 870.982788,223.403137 
	C877.462402,217.721909 885.100220,217.079224 892.951721,220.014374 
	C903.130859,223.819717 908.576416,236.428543 905.702271,248.939590 
	C905.406067,250.228867 904.933289,251.477585 904.359985,253.094177 
M898.965759,249.091721 
	C898.694031,243.869568 899.202637,238.451157 897.951111,233.475449 
	C896.419434,227.385910 891.030640,224.158615 885.205383,224.195160 
	C879.265564,224.232422 873.978210,227.939728 872.250305,234.077911 
	C871.279907,237.525375 870.944031,241.292755 871.089844,244.884827 
	C871.432678,253.331604 876.056396,259.067047 882.802917,260.162415 
	C890.345032,261.386932 895.147217,258.298920 898.965759,249.091721 
z"/>
<path fill="#2E2A2B" opacity="1.000000" stroke="none" 
	d="
M1391.302002,233.904709 
	C1391.225952,244.433334 1391.225952,254.543823 1391.225952,264.834839 
	C1388.494629,264.834839 1386.409668,264.834839 1384.072754,264.834839 
	C1384.072754,249.642609 1384.072754,234.600220 1384.072754,219.347794 
	C1386.433350,219.347794 1388.523926,219.347794 1390.818115,219.347794 
	C1390.929321,221.138519 1391.030396,222.766724 1391.185913,225.274521 
	C1395.830200,220.071396 1401.289551,217.876556 1407.748779,218.505096 
	C1415.435303,219.253036 1420.373657,223.569580 1420.675171,231.178131 
	C1421.115234,242.282791 1420.788452,253.417862 1420.788452,264.778839 
	C1418.358643,264.778839 1416.256104,264.778839 1413.439209,264.778839 
	C1413.439209,257.064117 1413.439209,249.317520 1413.439209,241.570938 
	C1413.439209,239.738861 1413.444458,237.906754 1413.438110,236.074692 
	C1413.412354,228.619843 1411.498535,225.657715 1405.921509,224.431274 
	C1400.007568,223.130783 1394.473999,226.139709 1391.881592,232.075317 
	C1391.682251,232.531906 1391.544556,233.015488 1391.302002,233.904709 
z"/>
<path fill="#262223" opacity="1.000000" stroke="none" 
	d="
M1222.228882,218.740707 
	C1229.591064,220.488327 1233.584595,224.024567 1233.800781,230.343155 
	C1234.191284,241.765778 1233.911377,253.211304 1233.911377,264.823669 
	C1231.476074,264.823669 1229.394043,264.823669 1226.819702,264.823669 
	C1226.819702,254.890366 1226.837036,245.126160 1226.813721,235.362076 
	C1226.796997,228.324402 1224.077026,224.879211 1218.079224,224.191513 
	C1211.952393,223.488998 1205.917847,227.166443 1204.965820,233.119293 
	C1204.106934,238.488419 1204.316772,244.039139 1204.198242,249.512848 
	C1204.090576,254.480438 1204.175537,259.452209 1204.175537,264.712372 
	C1201.838989,264.712372 1199.749390,264.712372 1197.324707,264.712372 
	C1197.324707,249.847443 1197.324707,234.801544 1197.324707,219.456818 
	C1199.376953,219.456818 1201.449341,219.456818 1203.859863,219.456818 
	C1204.038208,221.070786 1204.224121,222.753586 1204.485718,225.122360 
	C1209.504639,219.922256 1215.130859,217.670532 1222.228882,218.740707 
z"/>
<path fill="#2E2A2B" opacity="1.000000" stroke="none" 
	d="
M747.085022,218.854935 
	C756.346924,221.115829 760.782471,225.641815 762.093994,234.149780 
	C760.014221,234.149780 757.964111,234.149780 755.809387,234.149780 
	C751.739685,225.455215 746.916870,222.734543 739.090942,224.863556 
	C731.730896,226.865829 727.621643,234.821457 728.586182,245.200867 
	C729.406128,254.025208 734.242859,259.588654 741.707581,260.293823 
	C748.996094,260.982361 752.909485,257.849304 755.333313,249.206726 
	C757.533691,249.206726 759.799500,249.206726 762.250183,249.206726 
	C761.979248,255.865143 759.335083,261.075714 753.453125,263.888733 
	C745.769531,267.563446 737.917969,267.448975 730.648926,262.658051 
	C721.905151,256.895203 718.652466,243.782944 722.887268,232.531464 
	C726.684814,222.441849 735.345276,217.445847 747.085022,218.854935 
z"/>
<path fill="#282425" opacity="1.000000" stroke="none" 
	d="
M997.121826,206.466461 
	C1000.903503,201.066193 1006.117310,201.730896 1011.627686,202.005280 
	C1011.706970,203.735809 1011.779175,205.312393 1011.848877,206.833923 
	C1002.392883,209.070877 1002.138733,209.460907 1003.486084,219.746674 
	C1006.024414,219.746674 1008.622925,219.746674 1011.531616,219.746674 
	C1011.531616,221.843155 1011.531616,223.561966 1011.531616,225.630737 
	C1008.834412,225.630737 1006.226624,225.630737 1003.192810,225.630737 
	C1003.192810,239.033905 1003.192810,252.103516 1003.192810,265.508759 
	C1000.724731,265.508759 998.665344,265.508759 996.056519,265.508759 
	C996.056519,252.628220 996.056519,239.587677 996.056519,226.219742 
	C993.668396,225.987762 991.765137,225.802872 989.509155,225.583725 
	C989.509155,223.852554 989.509155,222.135757 989.509155,220.068024 
	C991.378723,219.926590 993.295288,219.781601 995.194275,219.637939 
	C995.799438,215.243469 996.378296,211.039551 997.121826,206.466461 
z"/>
<path fill="#393536" opacity="1.000000" stroke="none" 
	d="
M921.796997,223.000259 
	C921.796997,237.408508 921.796997,251.316788 921.796997,265.498718 
	C919.185120,265.498718 917.091553,265.498718 914.609436,265.498718 
	C914.609436,244.671799 914.609436,223.847000 914.609436,202.641220 
	C916.777710,202.641220 918.982178,202.641220 921.797058,202.641220 
	C921.797058,209.319748 921.797058,215.910019 921.796997,223.000259 
z"/>
<path fill="#282425" opacity="1.000000" stroke="none" 
	d="
M1346.009277,247.051453 
	C1346.009277,253.492889 1346.009277,259.443207 1346.009277,265.617157 
	C1343.508423,265.617157 1341.442871,265.617157 1339.096191,265.617157 
	C1339.096191,250.400894 1339.096191,235.356277 1339.096191,220.066376 
	C1341.285889,220.066376 1343.367310,220.066376 1345.858765,220.066376 
	C1345.945923,221.602753 1346.032959,223.139404 1346.084839,224.055374 
	C1350.960449,222.072281 1355.800171,220.103790 1361.585693,217.750595 
	C1361.585693,221.768036 1361.585693,224.119476 1361.585693,226.502060 
	C1350.633911,226.382645 1346.043701,230.946152 1346.010010,242.068878 
	C1346.005493,243.566010 1346.009277,245.063171 1346.009277,247.051453 
z"/>
<path fill="#2C2829" opacity="1.000000" stroke="none" 
	d="
M1216.746094,66.865372 
	C1216.746094,68.985832 1216.746094,70.628532 1216.746094,72.644043 
	C1209.488892,72.644043 1202.464355,72.644043 1195.156494,72.644043 
	C1195.156494,66.488144 1195.156494,60.258312 1195.156494,53.747265 
	C1202.223755,53.747265 1209.266846,53.747265 1216.746094,53.747265 
	C1216.746094,58.155354 1216.746094,62.271488 1216.746094,66.865372 
z"/>
<path fill="#242021" opacity="1.000000" stroke="none" 
	d="
M1368.253906,220.303177 
	C1370.546997,219.938232 1372.518677,219.938232 1374.753906,219.938232 
	C1374.753906,235.170013 1374.753906,250.244049 1374.753906,265.578552 
	C1372.571411,265.578552 1370.505737,265.578552 1367.932617,265.578552 
	C1367.932617,250.540405 1367.932617,235.604263 1368.253906,220.303177 
z"/>
<path fill="#252122" opacity="1.000000" stroke="none" 
	d="
M1181.010010,258.892700 
	C1181.010010,245.761139 1181.010010,233.116577 1181.010010,220.150238 
	C1183.314575,220.150238 1185.392212,220.150238 1187.853394,220.150238 
	C1187.853394,235.020462 1187.853394,250.088364 1187.853394,265.500183 
	C1185.879639,265.500183 1183.803467,265.500183 1181.010010,265.500183 
	C1181.010010,263.566681 1181.010010,261.473175 1181.010010,258.892700 
z"/>
<path fill="#2F2B2C" opacity="1.000000" stroke="none" 
	d="
M1182.289917,202.508240 
	C1184.358276,202.456619 1186.005371,202.456619 1187.954834,202.456619 
	C1187.954834,205.277390 1187.954834,207.871964 1187.954834,210.839874 
	C1185.965332,210.839874 1183.758057,210.839874 1180.754150,210.839874 
	C1181.123779,208.094009 1181.496216,205.326950 1182.289917,202.508240 
z"/>
<path fill="#2F2B2C" opacity="1.000000" stroke="none" 
	d="
M1367.854980,210.105743 
	C1367.818359,207.425446 1367.818359,205.137695 1367.818359,202.644852 
	C1370.342041,202.644852 1372.424561,202.644852 1374.775757,202.644852 
	C1374.775757,205.400436 1374.775757,207.991623 1374.775757,211.316605 
	C1372.498413,211.045898 1370.195068,210.772095 1367.854980,210.105743 
z"/>
<path fill="#FCFDFE" opacity="1.000000" stroke="none" 
	d="
M131.828522,134.811111 
	C130.563110,147.856262 129.283173,160.440277 128.149155,173.037445 
	C127.896744,175.841400 127.917854,178.717606 128.220947,181.516357 
	C130.452789,202.124756 148.858002,204.706436 161.558121,199.261719 
	C173.792053,194.016891 176.924683,183.165665 177.981049,171.179245 
	C180.055908,147.636475 182.211456,124.100807 184.354263,100.564079 
	C184.488907,99.084999 184.801498,97.622116 185.085678,95.803848 
	C193.364273,95.803848 201.558380,95.803848 210.250412,95.803848 
	C209.489273,104.146584 208.793793,112.246262 208.003586,120.336685 
	C206.046387,140.375092 204.864288,160.532440 201.872391,180.416519 
	C197.294968,210.837952 173.949036,228.831024 143.325562,226.983734 
	C123.613823,225.794647 106.481834,210.391769 104.297119,189.869858 
	C103.061592,178.264023 104.448257,166.344894 105.054634,154.587555 
	C105.568741,144.619034 106.647095,134.679245 107.496567,124.728523 
	C108.329803,114.967995 109.189285,105.209702 110.055954,95.235214 
	C118.400291,95.235214 126.498566,95.235214 135.360016,95.235214 
	C134.187775,108.362160 133.027206,121.358444 131.828522,134.811111 
z"/>
<path fill="#FCFDFE" opacity="1.000000" stroke="none" 
	d="
M468.872253,104.787811 
	C471.729797,99.238922 474.436249,94.030067 477.870392,87.420677 
	C494.065735,133.549393 509.706573,178.098663 525.662781,223.546249 
	C516.822754,223.546249 508.745697,223.663284 500.681488,223.394730 
	C499.699066,223.362000 498.350708,221.400528 497.916046,220.086731 
	C496.093781,214.578430 494.554749,208.976425 492.842072,203.171814 
	C477.339203,203.171814 462.033600,203.098694 446.731720,203.304367 
	C445.445251,203.321671 443.699615,204.953918 442.998230,206.276520 
	C440.509430,210.969452 438.493469,215.912033 436.039459,220.625214 
	C435.399292,221.854706 433.844666,223.394424 432.667694,223.431091 
	C424.724243,223.678589 416.769409,223.560165 407.897827,223.560165 
	C428.401428,183.636551 448.561279,144.382187 468.872253,104.787811 
M480.329468,181.160202 
	C482.133514,181.160202 483.937561,181.160202 486.194580,181.160202 
	C482.140167,166.542480 478.235046,152.463043 474.156494,137.758286 
	C467.512726,152.426926 461.136261,166.505417 454.498749,181.160278 
	C463.399933,181.160278 471.385834,181.160278 480.329468,181.160202 
z"/>
<path fill="#FCFEFE" opacity="1.000000" stroke="none" 
	d="
M243.618607,179.126190 
	C251.142639,200.833786 275.884644,204.638184 292.200531,198.287842 
	C299.483734,195.453110 306.074463,190.839157 313.228394,186.895477 
	C312.447540,195.836304 311.697754,205.197845 310.716766,214.535080 
	C310.610779,215.544083 309.346497,216.774597 308.313751,217.292343 
	C287.832886,227.560028 266.696014,229.322342 245.709015,219.769592 
	C227.625320,211.538361 218.732178,195.854355 216.635620,176.679520 
	C213.576050,148.696777 221.769089,124.574326 244.104095,106.471947 
	C263.602753,90.668411 295.755310,88.377151 317.678070,100.504799 
	C320.081604,101.834435 320.826202,103.132980 320.466187,105.961853 
	C319.383392,114.469292 318.747131,123.033562 317.834381,132.653809 
	C311.552673,125.033363 304.518677,120.288887 295.713013,118.604942 
	C267.876282,113.281654 245.167053,128.227142 242.075836,157.054306 
	C241.314041,164.158493 242.937637,171.518448 243.618607,179.126190 
z"/>
<path fill="#FAFCFE" opacity="1.000000" stroke="none" 
	d="
M332.022736,194.896393 
	C335.050171,161.452164 338.053802,128.468796 341.078888,95.249939 
	C349.551056,95.249939 357.795837,95.249939 366.504822,95.249939 
	C363.385529,129.905548 360.288147,164.317657 357.134583,199.353973 
	C373.877258,199.353973 390.281158,199.353973 407.288666,199.353973 
	C406.471924,207.730057 405.718567,215.456024 404.950500,223.332977 
	C379.808319,223.332977 355.036865,223.332977 329.566895,223.332977 
	C330.394409,213.814148 331.196655,204.585709 332.022736,194.896393 
z"/>
<path fill="#F5F4F4" opacity="1.000000" stroke="none" 
	d="
M1120.950684,103.991096 
	C1124.778442,107.740242 1126.841187,111.895920 1127.008057,117.260025 
	C1115.027466,117.260025 1103.297974,117.260025 1091.149048,117.260025 
	C1091.577881,110.673714 1094.201782,105.315239 1100.089966,102.323952 
	C1107.051270,98.787506 1114.130493,98.679840 1120.950684,103.991096 
z"/>
<path fill="#FAFAFA" opacity="1.000000" stroke="none" 
	d="
M820.830627,132.071747 
	C820.820984,147.993607 811.102234,156.280472 796.667480,153.235825 
	C792.757080,152.411026 789.735046,150.646317 789.060181,146.487411 
	C788.313416,141.885666 788.635254,137.444931 793.181274,134.622131 
	C794.436523,133.842667 795.764343,133.058411 797.167786,132.659576 
	C804.914734,130.457947 812.695312,128.374893 820.830627,126.151093 
	C820.830627,128.049805 820.830627,129.833069 820.830627,132.071747 
z"/>
<path fill="#FCFCFC" opacity="1.000000" stroke="none" 
	d="
M1459.475586,252.242981 
	C1455.471558,257.808746 1450.137939,259.235718 1444.280762,257.638977 
	C1438.397217,256.035065 1436.224243,251.060745 1435.740967,245.445328 
	C1435.474487,242.349564 1435.519409,239.140259 1436.026123,236.081909 
	C1437.266479,228.592941 1442.249146,224.671249 1449.517456,225.022766 
	C1456.455566,225.358307 1461.552979,229.747742 1461.763184,236.920471 
	C1461.909058,241.900436 1460.445312,246.927582 1459.475586,252.242981 
z"/>
<path fill="#FBFBFB" opacity="1.000000" stroke="none" 
	d="
M1142.330444,254.700165 
	C1137.265747,247.773834 1137.176880,240.512451 1139.674683,233.117050 
	C1141.645264,227.282349 1146.047852,224.692459 1152.432739,225.016937 
	C1158.498901,225.325226 1162.862061,228.265396 1163.914062,234.109970 
	C1164.714233,238.554749 1164.949707,243.449753 1163.946045,247.800766 
	C1161.587402,258.027527 1151.193115,261.269928 1142.330444,254.700165 
z"/>
<path fill="#F7F6F7" opacity="1.000000" stroke="none" 
	d="
M1273.570557,238.828201 
	C1265.167236,238.830246 1257.220337,238.830246 1249.264526,238.830246 
	C1249.605713,230.530960 1254.705688,224.887146 1262.196777,224.229507 
	C1269.003662,223.631943 1274.546387,228.066559 1275.668579,235.328217 
	C1275.831665,236.384399 1274.608643,237.654846 1273.570557,238.828201 
z"/>
<path fill="#F7F6F7" opacity="1.000000" stroke="none" 
	d="
M1308.499390,224.373505 
	C1316.440308,223.338455 1323.427002,228.671524 1322.884521,238.552795 
	C1314.045654,238.552795 1305.188477,238.552795 1296.313843,238.552795 
	C1297.338989,230.340897 1300.617065,226.448624 1308.499390,224.373505 
z"/>
<path fill="#FCFCFC" opacity="1.000000" stroke="none" 
	d="
M840.300415,259.973755 
	C830.278503,261.202759 824.323181,257.315796 822.948853,247.654709 
	C822.254333,242.772720 822.883667,237.370575 824.287537,232.608383 
	C825.933655,227.024643 830.795654,224.368103 836.652100,224.227737 
	C842.340576,224.091385 846.929688,227.448959 849.345581,233.061951 
	C853.027283,241.615753 851.258362,256.936676 840.300415,259.973755 
z"/>
<path fill="#FCFCFC" opacity="1.000000" stroke="none" 
	d="
M951.757324,235.214142 
	C954.941406,227.205643 959.837402,223.626419 966.343140,224.262894 
	C973.335266,224.946945 977.809204,229.681015 979.263306,237.934204 
	C981.268250,249.313934 976.409546,258.723877 967.794983,260.145050 
	C959.302429,261.546143 952.376221,256.287201 951.208557,246.988281 
	C950.741516,243.268967 951.447876,239.402313 951.757324,235.214142 
z"/>
<path fill="#FCFCFC" opacity="1.000000" stroke="none" 
	d="
M898.880371,249.485321 
	C895.147217,258.298920 890.345032,261.386932 882.802917,260.162415 
	C876.056396,259.067047 871.432678,253.331604 871.089844,244.884827 
	C870.944031,241.292755 871.279907,237.525375 872.250305,234.077911 
	C873.978210,227.939728 879.265564,224.232422 885.205383,224.195160 
	C891.030640,224.158615 896.419434,227.385910 897.951111,233.475449 
	C899.202637,238.451157 898.694031,243.869568 898.880371,249.485321 
z"/>
<path fill="#117DB6" opacity="1.000000" stroke="none" 
	d="
M479.850586,181.160248 
	C471.385834,181.160278 463.399933,181.160278 454.498749,181.160278 
	C461.136261,166.505417 467.512726,152.426926 474.156494,137.758286 
	C478.235046,152.463043 482.140167,166.542480 486.194580,181.160202 
	C483.937561,181.160202 482.133514,181.160202 479.850586,181.160248 
z"/>
</svg>